<?xml version="1.0" encoding="utf-8"?>
<!-- Generator: Adobe Illustrator 18.0.0, SVG Export Plug-In . SVG Version: 6.00 Build 0)  -->
<!DOCTYPE svg PUBLIC "-//W3C//DTD SVG 1.1//EN" "http://www.w3.org/Graphics/SVG/1.1/DTD/svg11.dtd">
<svg version="1.1" id="Layer_1" xmlns="http://www.w3.org/2000/svg" xmlns:xlink="http://www.w3.org/1999/xlink" x="0px" y="0px"
	 viewBox="0 0 3000 200" enable-background="new 0 0 3000 200" xml:space="preserve">
<g opacity="0.4">
	<g>
		
			<polygon fill="none" stroke="#000000" stroke-width="4" stroke-linecap="round" stroke-linejoin="round" stroke-miterlimit="10" points="
			211,153 180.1,165 154.1,144.3 159.1,111.5 190.1,99.4 216,120.1 		"/>
		
			<polygon fill="none" stroke="#000000" stroke-width="4" stroke-linecap="round" stroke-linejoin="round" stroke-miterlimit="10" points="
			221.2,188.8 236.7,199.9 234.8,218.7 217.6,226.6 202.1,215.6 204,196.7 		"/>
		
			<polygon fill="none" stroke="#000000" stroke-width="4" stroke-linecap="round" stroke-linejoin="round" stroke-miterlimit="10" points="
			111.4,57.5 98.9,53.1 96.3,40.1 106.4,31.4 118.9,35.8 121.4,48.8 		"/>
		
			<polygon fill="none" stroke="#000000" stroke-width="4" stroke-linecap="round" stroke-linejoin="round" stroke-miterlimit="10" points="
			178.5,150.7 164.2,173.3 137.4,172.2 125.1,148.4 139.4,125.9 166.1,127 		"/>
		
			<polygon fill="none" stroke="#000000" stroke-width="4" stroke-linecap="round" stroke-linejoin="round" stroke-miterlimit="10" points="
			193.4,231.5 200.6,243.6 193.8,255.8 179.7,256 172.5,244 179.4,231.7 		"/>
		
			<polygon fill="none" stroke="#000000" stroke-width="4" stroke-linecap="round" stroke-linejoin="round" stroke-miterlimit="10" points="
			215,160.7 234.9,172.1 235,195.1 215.2,206.6 195.2,195.2 195.1,172.3 		"/>
		
			<polygon fill="none" stroke="#000000" stroke-width="4" stroke-linecap="round" stroke-linejoin="round" stroke-miterlimit="10" points="
			181,169.2 183.1,192.7 163.8,206.3 142.3,196.4 140.2,172.9 159.5,159.3 		"/>
		
			<polygon fill="none" stroke="#000000" stroke-width="4" stroke-linecap="round" stroke-linejoin="round" stroke-miterlimit="10" points="
			164.3,134.3 137.8,132.7 126,109 140.6,87 167,88.6 178.9,112.3 		"/>
		
			<polygon fill="none" stroke="#000000" stroke-width="4" stroke-linecap="round" stroke-linejoin="round" stroke-miterlimit="10" points="
			158.9,-64.9 159.4,-64.3 159.1,-63.5 158.3,-63.4 157.8,-64.1 158.1,-64.8 		"/>
		
			<polygon fill="none" stroke="#000000" stroke-width="4" stroke-linecap="round" stroke-linejoin="round" stroke-miterlimit="10" points="
			195.7,112.4 210.3,90.7 236.4,92.5 247.9,116 233.3,137.7 207.2,135.9 		"/>
		
			<polygon fill="none" stroke="#000000" stroke-width="4" stroke-linecap="round" stroke-linejoin="round" stroke-miterlimit="10" points="
			225,69.4 227.9,51.8 244.6,45.5 258.4,56.8 255.5,74.5 238.8,80.8 		"/>
		
			<polygon fill="none" stroke="#000000" stroke-width="4" stroke-linecap="round" stroke-linejoin="round" stroke-miterlimit="10" points="
			332.5,27.8 333.3,26.1 335.2,25.9 336.3,27.5 335.5,29.2 333.6,29.4 		"/>
		
			<polygon fill="none" stroke="#000000" stroke-width="4" stroke-linecap="round" stroke-linejoin="round" stroke-miterlimit="10" points="
			250,42.4 251.9,30.2 263.5,25.8 273.1,33.6 271.1,45.8 259.6,50.2 		"/>
		
			<polygon fill="none" stroke="#000000" stroke-width="4" stroke-linecap="round" stroke-linejoin="round" stroke-miterlimit="10" points="
			185.1,86.9 179,65.4 194.6,49.4 216.2,54.9 222.3,76.4 206.7,92.4 		"/>
		
			<polygon fill="none" stroke="#000000" stroke-width="4" stroke-linecap="round" stroke-linejoin="round" stroke-miterlimit="10" points="
			173.8,165.5 170.2,189.2 147.9,197.9 129.2,183 132.7,159.3 155.1,150.6 		"/>
		
			<polygon fill="none" stroke="#000000" stroke-width="4" stroke-linecap="round" stroke-linejoin="round" stroke-miterlimit="10" points="
			99.5,144.3 86,153 71.8,145.7 71,129.6 84.5,121 98.8,128.3 		"/>
		
			<polygon fill="none" stroke="#000000" stroke-width="4" stroke-linecap="round" stroke-linejoin="round" stroke-miterlimit="10" points="
			98.8,138.1 84.7,145.8 71,137.4 71.4,121.4 85.5,113.7 99.2,122.1 		"/>
		
			<polygon fill="none" stroke="#000000" stroke-width="4" stroke-linecap="round" stroke-linejoin="round" stroke-miterlimit="10" points="
			337,126.5 328.9,129.7 322,124.2 323.3,115.5 331.5,112.3 338.4,117.8 		"/>
	</g>
	<g>
		
			<polygon fill="none" stroke="#000000" stroke-width="4" stroke-linecap="round" stroke-linejoin="round" stroke-miterlimit="10" points="
			1040,89 1009.8,75.2 1006.6,42.2 1033.6,22.9 1063.8,36.6 1067,69.7 		"/>
		
			<polygon fill="none" stroke="#000000" stroke-width="4" stroke-linecap="round" stroke-linejoin="round" stroke-miterlimit="10" points="
			1021.4,121.4 1024.3,140.1 1009.5,151.9 991.8,145.1 989,126.3 1003.8,114.5 		"/>
		
			<polygon fill="none" stroke="#000000" stroke-width="4" stroke-linecap="round" stroke-linejoin="round" stroke-miterlimit="10" points="
			1039,-49 1033.4,-61 1040.9,-71.9 1054.1,-70.8 1059.8,-58.8 1052.2,-47.9 		"/>
		
			<polygon fill="none" stroke="#000000" stroke-width="4" stroke-linecap="round" stroke-linejoin="round" stroke-miterlimit="10" points="
			1019,64.2 992.8,69.6 975,49.7 983.3,24.3 1009.5,18.8 1027.3,38.7 		"/>
		
			<polygon fill="none" stroke="#000000" stroke-width="4" stroke-linecap="round" stroke-linejoin="round" stroke-miterlimit="10" points="
			971.5,131.2 967.8,144.8 954.3,148.4 944.3,138.5 948,124.9 961.5,121.3 		"/>
		
			<polygon fill="none" stroke="#000000" stroke-width="4" stroke-linecap="round" stroke-linejoin="round" stroke-miterlimit="10" points="
			1037.2,97.2 1043,119.5 1026.6,135.6 1004.4,129.4 998.7,107.2 1015.1,91.1 		"/>
		
			<polygon fill="none" stroke="#000000" stroke-width="4" stroke-linecap="round" stroke-linejoin="round" stroke-miterlimit="10" points="
			1007.4,78.8 992,96.7 968.8,92.4 961,70.1 976.4,52.1 999.6,56.5 		"/>
		
			<polygon fill="none" stroke="#000000" stroke-width="4" stroke-linecap="round" stroke-linejoin="round" stroke-miterlimit="10" points="
			1020.8,42.5 1003.5,22.4 1012.2,-2.6 1038.2,-7.5 1055.5,12.6 1046.8,37.6 		"/>
		
			<polygon fill="none" stroke="#000000" stroke-width="4" stroke-linecap="round" stroke-linejoin="round" stroke-miterlimit="10" points="
			1159.8,-100.3 1159.7,-99.5 1159,-99.2 1158.3,-99.7 1158.5,-100.5 1159.2,-100.8 		"/>
		
			<polygon fill="none" stroke="#000000" stroke-width="4" stroke-linecap="round" stroke-linejoin="round" stroke-miterlimit="10" points="
			1058.4,49.8 1084.1,45.1 1101.1,65 1092.3,89.6 1066.5,94.3 1049.6,74.4 		"/>
		
			<polygon fill="none" stroke="#000000" stroke-width="4" stroke-linecap="round" stroke-linejoin="round" stroke-miterlimit="10" points="
			1109.6,40.8 1124.3,30.5 1140.5,38.1 1142,55.9 1127.3,66.1 1111.1,58.6 		"/>
		
			<polygon fill="none" stroke="#000000" stroke-width="4" stroke-linecap="round" stroke-linejoin="round" stroke-miterlimit="10" points="
			1214.4,88.8 1216.2,88.1 1217.7,89.4 1217.3,91.3 1215.5,91.9 1214,90.7 		"/>
		
			<polygon fill="none" stroke="#000000" stroke-width="4" stroke-linecap="round" stroke-linejoin="round" stroke-miterlimit="10" points="
			1146.4,39.8 1156.5,32.7 1167.8,37.9 1168.9,50.2 1158.8,57.3 1147.5,52.1 		"/>
		
			<polygon fill="none" stroke="#000000" stroke-width="4" stroke-linecap="round" stroke-linejoin="round" stroke-miterlimit="10" points="
			1069.3,24.3 1080.5,5 1102.8,5 1113.9,24.4 1102.8,43.7 1080.4,43.7 		"/>
		
			<polygon fill="none" stroke="#000000" stroke-width="4" stroke-linecap="round" stroke-linejoin="round" stroke-miterlimit="10" points="
			1005.1,71.1 985.6,85 963.7,75.1 961.4,51.3 980.9,37.3 1002.7,47.2 		"/>
		
			<polygon fill="none" stroke="#000000" stroke-width="4" stroke-linecap="round" stroke-linejoin="round" stroke-miterlimit="10" points="
			968.5,3.1 952.8,-0.5 948.1,-15.9 959.1,-27.6 974.7,-24 979.4,-8.6 		"/>
		
			<polygon fill="none" stroke="#000000" stroke-width="4" stroke-linecap="round" stroke-linejoin="round" stroke-miterlimit="10" points="
			972.4,-1.8 957.1,-6.5 953.5,-22.2 965.3,-33.1 980.6,-28.3 984.2,-12.7 		"/>
		
			<polygon fill="none" stroke="#000000" stroke-width="4" stroke-linecap="round" stroke-linejoin="round" stroke-miterlimit="10" points="
			1146.9,160.9 1138.9,157.2 1138,148.5 1145.2,143.4 1153.2,147 1154,155.8 		"/>
	</g>
	<g>
		
			<polygon fill="none" stroke="#000000" stroke-width="4" stroke-linecap="round" stroke-linejoin="round" stroke-miterlimit="10" points="
			1845.7,87.7 1850.4,54.9 1881.2,42.5 1907.3,63 1902.6,95.9 1871.8,108.2 		"/>
		
			<polygon fill="none" stroke="#000000" stroke-width="4" stroke-linecap="round" stroke-linejoin="round" stroke-miterlimit="10" points="
			1809.4,79 1792.2,87 1776.7,76.1 1778.3,57.2 1795.5,49.2 1811,60.1 		"/>
		
			<polygon fill="none" stroke="#000000" stroke-width="4" stroke-linecap="round" stroke-linejoin="round" stroke-miterlimit="10" points="
			1977.8,48.1 1987.8,39.3 2000.3,43.5 2003,56.5 1993,65.3 1980.5,61 		"/>
		
			<polygon fill="none" stroke="#000000" stroke-width="4" stroke-linecap="round" stroke-linejoin="round" stroke-miterlimit="10" points="
			1863.6,60.6 1851,37 1865.1,14.3 1891.9,15.2 1904.5,38.8 1890.3,61.5 		"/>
		
			<polygon fill="none" stroke="#000000" stroke-width="4" stroke-linecap="round" stroke-linejoin="round" stroke-miterlimit="10" points="
			1785.9,33.8 1771.9,34.1 1764.6,22.1 1771.3,9.8 1785.4,9.5 1792.7,21.5 		"/>
		
			<polygon fill="none" stroke="#000000" stroke-width="4" stroke-linecap="round" stroke-linejoin="round" stroke-miterlimit="10" points="
			1837,87.4 1817.2,99.2 1797.2,88 1796.9,65 1816.6,53.2 1836.7,64.4 		"/>
		
			<polygon fill="none" stroke="#000000" stroke-width="4" stroke-linecap="round" stroke-linejoin="round" stroke-miterlimit="10" points="
			1846.3,53.6 1824.8,43.9 1822.4,20.4 1841.6,6.6 1863.2,16.3 1865.5,39.8 		"/>
		
			<polygon fill="none" stroke="#000000" stroke-width="4" stroke-linecap="round" stroke-linejoin="round" stroke-miterlimit="10" points="
			1884.9,56.2 1899.3,34 1925.7,35.4 1937.8,59 1923.4,81.2 1896.9,79.8 		"/>
		
			<polygon fill="none" stroke="#000000" stroke-width="4" stroke-linecap="round" stroke-linejoin="round" stroke-miterlimit="10" points="
			2061,149.6 2060.2,149.7 2059.7,149.1 2060,148.4 2060.8,148.3 2061.3,148.9 		"/>
		
			<polygon fill="none" stroke="#000000" stroke-width="4" stroke-linecap="round" stroke-linejoin="round" stroke-miterlimit="10" points="
			1888.5,94.4 1900.2,117.8 1885.8,139.6 1859.7,138.1 1848,114.7 1862.4,92.9 		"/>
		
			<polygon fill="none" stroke="#000000" stroke-width="4" stroke-linecap="round" stroke-linejoin="round" stroke-miterlimit="10" points="
			1911.5,141 1925.4,152.2 1922.7,169.9 1906,176.3 1892.1,165.1 1894.8,147.5 		"/>
		
			<polygon fill="none" stroke="#000000" stroke-width="4" stroke-linecap="round" stroke-linejoin="round" stroke-miterlimit="10" points="
			1894.8,255.1 1896,256.6 1895.2,258.4 1893.2,258.6 1892.1,257 1892.9,255.3 		"/>
		
			<polygon fill="none" stroke="#000000" stroke-width="4" stroke-linecap="round" stroke-linejoin="round" stroke-miterlimit="10" points="
			1922.7,176.1 1932.4,183.8 1930.6,196 1919.1,200.6 1909.4,192.9 1911.2,180.6 		"/>
		
			<polygon fill="none" stroke="#000000" stroke-width="4" stroke-linecap="round" stroke-linejoin="round" stroke-miterlimit="10" points="
			1916,97.7 1937.6,103 1943.9,124.4 1928.5,140.6 1906.8,135.3 1900.5,113.8 		"/>
		
			<polygon fill="none" stroke="#000000" stroke-width="4" stroke-linecap="round" stroke-linejoin="round" stroke-miterlimit="10" points="
			1853,49.2 1834.2,34.4 1837.6,10.7 1859.8,1.7 1878.7,16.5 1875.3,40.3 		"/>
		
			<polygon fill="none" stroke="#000000" stroke-width="4" stroke-linecap="round" stroke-linejoin="round" stroke-miterlimit="10" points="
			1908,-5 1907.1,-21.1 1920.5,-29.9 1934.9,-22.6 1935.8,-6.6 1922.3,2.2 		"/>
		
			<polygon fill="none" stroke="#000000" stroke-width="4" stroke-linecap="round" stroke-linejoin="round" stroke-miterlimit="10" points="
			1913.8,-2.6 1914.1,-18.6 1928.1,-26.4 1941.8,-18.2 1941.6,-2.2 1927.6,5.6 		"/>
		
			<polygon fill="none" stroke="#000000" stroke-width="4" stroke-linecap="round" stroke-linejoin="round" stroke-miterlimit="10" points="
			1806.7,210.5 1807.9,201.8 1816.1,198.6 1823,204 1821.8,212.7 1813.6,215.9 		"/>
	</g>
</g>
<g opacity="0.3">
	<g>
		
			<polygon fill="none" stroke="#231F20" stroke-width="4" stroke-linecap="round" stroke-linejoin="round" stroke-miterlimit="10" points="
			686.6,53.7 649,144.7 551.3,157.6 491.3,79.5 529,-11.5 626.6,-24.4 		"/>
		
			<polygon fill="none" stroke="#231F20" stroke-width="4" stroke-linecap="round" stroke-linejoin="round" stroke-miterlimit="10" points="
			713.3,-7.1 863.3,-78.7 1000.4,15.4 987.4,181.1 837.4,252.7 700.4,158.7 		"/>
		
			<polygon fill="none" stroke="#231F20" stroke-width="4" stroke-linecap="round" stroke-linejoin="round" stroke-miterlimit="10" points="
			666.6,61.3 787.8,128.7 790.1,267.4 671.1,338.6 549.9,271.2 547.7,132.6 		"/>
		
			<polygon fill="none" stroke="#231F20" stroke-width="4" stroke-linecap="round" stroke-linejoin="round" stroke-miterlimit="10" points="
			509.1,77.5 379.8,23.6 361.8,-115.4 473.1,-200.4 602.5,-146.5 620.5,-7.6 		"/>
		
			<polygon fill="none" stroke="#231F20" stroke-width="4" stroke-linecap="round" stroke-linejoin="round" stroke-miterlimit="10" points="
			649.3,49.7 725.2,147.7 678.4,262.6 555.5,279.4 479.5,181.3 526.4,66.5 		"/>
		
			<polygon fill="none" stroke="#231F20" stroke-width="4" stroke-linecap="round" stroke-linejoin="round" stroke-miterlimit="10" points="
			601.1,186.6 587.6,343.3 445.1,410 316.1,319.9 329.6,163.2 472.1,96.5 		"/>
		
			<polygon fill="none" stroke="#231F20" stroke-width="4" stroke-linecap="round" stroke-linejoin="round" stroke-miterlimit="10" points="
			511.9,148.2 383.1,232.7 245.5,163.5 236.7,9.7 365.5,-74.9 503.1,-5.6 		"/>
		
			<polygon fill="none" stroke="#231F20" stroke-width="4" stroke-linecap="round" stroke-linejoin="round" stroke-miterlimit="10" points="
			582.1,140.4 476.7,107.8 452.3,0.1 533.3,-74.9 638.7,-42.2 663.1,65.5 		"/>
		
			<polygon fill="none" stroke="#231F20" stroke-width="4" stroke-linecap="round" stroke-linejoin="round" stroke-miterlimit="10" points="
			537.1,31.6 563.2,-89.5 681.2,-127.4 773,-44.2 746.8,76.9 628.9,114.8 		"/>
		
			<polygon fill="none" stroke="#231F20" stroke-width="4" stroke-linecap="round" stroke-linejoin="round" stroke-miterlimit="10" points="
			527.9,240 467,387.2 309.1,408.1 212.1,281.8 272.9,134.7 430.8,113.8 		"/>
	</g>
	<g>
		
			<polygon fill="none" stroke="#231F20" stroke-width="4" stroke-linecap="round" stroke-linejoin="round" stroke-miterlimit="10" points="
			1605.8,167.1 1514.3,203.6 1436.9,142.7 1451.1,45.2 1542.5,8.7 1619.9,69.7 		"/>
		
			<polygon fill="none" stroke="#231F20" stroke-width="4" stroke-linecap="round" stroke-linejoin="round" stroke-miterlimit="10" points="
			1667.9,143.9 1823.9,201.5 1852,365.3 1724.2,471.6 1568.2,414 1540.1,250.2 		"/>
		
			<polygon fill="none" stroke="#231F20" stroke-width="4" stroke-linecap="round" stroke-linejoin="round" stroke-miterlimit="10" points="
			1586.3,158.2 1622.5,292 1524.7,390.3 1390.7,354.7 1354.5,220.9 1452.3,122.6 		"/>
		
			<polygon fill="none" stroke="#231F20" stroke-width="4" stroke-linecap="round" stroke-linejoin="round" stroke-miterlimit="10" points="
			1464.9,56.6 1413.4,-73.7 1500.4,-183.5 1639,-163.1 1690.6,-32.8 1603.5,77 		"/>
		
			<polygon fill="none" stroke="#231F20" stroke-width="4" stroke-linecap="round" stroke-linejoin="round" stroke-miterlimit="10" points="
			1582.6,137.6 1565.3,260.4 1450.3,306.9 1352.6,230.5 1369.8,107.7 1484.8,61.2 		"/>
		
			<polygon fill="none" stroke="#231F20" stroke-width="4" stroke-linecap="round" stroke-linejoin="round" stroke-miterlimit="10" points="
			1450.8,198.5 1329.1,298.2 1181.9,242.5 1156.5,87.2 1278.3,-12.4 1425.5,43.3 		"/>
		
			<polygon fill="none" stroke="#231F20" stroke-width="4" stroke-linecap="round" stroke-linejoin="round" stroke-miterlimit="10" points="
			1416.2,107.8 1265.8,74.5 1219.5,-72.4 1323.5,-186 1473.9,-152.7 1520.3,-5.8 		"/>
		
			<polygon fill="none" stroke="#231F20" stroke-width="4" stroke-linecap="round" stroke-linejoin="round" stroke-miterlimit="10" points="
			1470.7,152.8 1420.6,54.4 1480.7,-38.2 1591,-32.4 1641.1,66 1580.9,158.5 		"/>
		
			<polygon fill="none" stroke="#231F20" stroke-width="4" stroke-linecap="round" stroke-linejoin="round" stroke-miterlimit="10" points="
			1517.3,44.6 1622.3,-21.1 1731.8,37 1736.1,160.8 1631.1,226.5 1521.7,168.4 		"/>
		
			<polygon fill="none" stroke="#231F20" stroke-width="4" stroke-linecap="round" stroke-linejoin="round" stroke-miterlimit="10" points="
			1361.5,183.3 1213.6,242.4 1088.5,143.8 1111.3,-13.8 1259.2,-72.9 1384.3,25.7 		"/>
	</g>
	<g>
		
			<polygon fill="none" stroke="#231F20" stroke-width="4" stroke-linecap="round" stroke-linejoin="round" stroke-miterlimit="10" points="
			2297,211.3 2322.3,116.1 2417.4,90.4 2487.2,159.9 2461.9,255.1 2366.8,280.8 		"/>
		
			<polygon fill="none" stroke="#231F20" stroke-width="4" stroke-linecap="round" stroke-linejoin="round" stroke-miterlimit="10" points="
			2278.5,275 2139.3,365.8 1991,290.6 1982,124.6 2121.2,33.8 2269.5,109 		"/>
		
			<polygon fill="none" stroke="#231F20" stroke-width="4" stroke-linecap="round" stroke-linejoin="round" stroke-miterlimit="10" points="
			2315.8,201.1 2186.7,150.2 2166.2,13.1 2274.8,-73.2 2403.8,-22.4 2424.3,114.7 		"/>
		
			<polygon fill="none" stroke="#231F20" stroke-width="4" stroke-linecap="round" stroke-linejoin="round" stroke-miterlimit="10" points="
			2469.8,164.3 2605.1,200.6 2641.3,336 2542.1,435 2406.8,398.6 2370.6,263.3 		"/>
		
			<polygon fill="none" stroke="#231F20" stroke-width="4" stroke-linecap="round" stroke-linejoin="round" stroke-miterlimit="10" points="
			2334.5,210.3 2246.3,123.1 2277.6,3.1 2397.2,-29.7 2485.5,57.4 2454.1,177.4 		"/>
		
			<polygon fill="none" stroke="#231F20" stroke-width="4" stroke-linecap="round" stroke-linejoin="round" stroke-miterlimit="10" points="
			2364.2,68.2 2356.9,-88.9 2489.4,-173.8 2629.1,-101.5 2636.4,55.6 2504,140.5 		"/>
		
			<polygon fill="none" stroke="#231F20" stroke-width="4" stroke-linecap="round" stroke-linejoin="round" stroke-miterlimit="10" points="
			2457.7,94.6 2574.2,-6.2 2719.7,44.3 2748.8,195.5 2632.3,296.3 2486.7,245.9 		"/>
		
			<polygon fill="none" stroke="#231F20" stroke-width="4" stroke-linecap="round" stroke-linejoin="round" stroke-miterlimit="10" points="
			2389.1,111.5 2497.9,130 2536.3,233.4 2465.9,318.5 2357.1,300 2318.7,196.5 		"/>
		
			<polygon fill="none" stroke="#231F20" stroke-width="4" stroke-linecap="round" stroke-linejoin="round" stroke-miterlimit="10" points="
			2448.1,213.4 2438.2,336.9 2326.2,390.1 2224.3,319.7 2234.2,196.2 2346.2,143.1 		"/>
		
			<polygon fill="none" stroke="#231F20" stroke-width="4" stroke-linecap="round" stroke-linejoin="round" stroke-miterlimit="10" points="
			2429.8,5.6 2470.6,-148.3 2624.4,-189.9 2737.2,-77.5 2696.3,76.4 2542.6,118 		"/>
	</g>
</g>
</svg>
