<?xml version="1.0" encoding="utf-8"?>
<!-- Generator: Adobe Illustrator 19.0.0, SVG Export Plug-In . SVG Version: 6.00 Build 0)  -->
<svg version="1.1" id="Layer_1" xmlns="http://www.w3.org/2000/svg" xmlns:xlink="http://www.w3.org/1999/xlink" x="0px" y="0px"
	 viewBox="0 0 54 216" style="enable-background:new 0 0 54 216;" xml:space="preserve">
<style type="text/css">
	.st0{fill:#F3F3F3;stroke:#EF4136;stroke-width:0.5;stroke-miterlimit:10;}
	.st1{fill:#75787B;}
	.st2{fill:#F3F3F3;stroke:#606161;stroke-width:0.5;stroke-miterlimit:10;}
	.st3{fill:#606161;}
	.st4{font-family:'AdobeClean-SemiCn';}
	.st5{font-size:13.7944px;}
	.st6{fill:#F3F3F3;}
	.st7{fill:#F3F3F3;stroke:#606161;stroke-width:0.5824;stroke-miterlimit:10;}
	.st8{font-size:16.0689px;}
</style>
<g id="XMLID_727_">
	<g id="XMLID_730_">
		<rect id="XMLID_738_" x="5.9" y="7.5" class="st0" width="41.9" height="41.9"/>
		<g id="XMLID_735_">
			<rect id="XMLID_737_" x="20.3" y="21.2" class="st1" width="22.1" height="22.1"/>
			<rect id="XMLID_736_" x="12.1" y="12.9" class="st2" width="22.1" height="22.1"/>
		</g>
		<rect id="XMLID_734_" x="3.8" y="5.5" class="st0" width="4.1" height="4.1"/>
		<rect id="XMLID_733_" x="45.8" y="5.5" class="st0" width="4.1" height="4.1"/>
		<rect id="XMLID_732_" x="3.8" y="47.4" class="st0" width="4.1" height="4.1"/>
		<rect id="XMLID_731_" x="45.8" y="47.4" class="st0" width="4.1" height="4.1"/>
	</g>
</g>
<g id="XMLID_707_">
	<g id="XMLID_714_">
		<rect id="XMLID_726_" x="6.2" y="60" class="st0" width="41.9" height="41.9"/>
		<g id="XMLID_723_">
			<rect id="XMLID_725_" x="29.2" y="72.6" class="st1" width="16.8" height="16.8"/>
			<rect id="XMLID_724_" x="9.3" y="72.6" class="st2" width="16.8" height="16.8"/>
		</g>
		<rect id="XMLID_722_" x="4.2" y="58" class="st0" width="4.1" height="4.1"/>
		<rect id="XMLID_721_" x="46.1" y="58" class="st0" width="4.1" height="4.1"/>
		<rect id="XMLID_720_" x="4.2" y="99.9" class="st0" width="4.1" height="4.1"/>
		<rect id="XMLID_719_" x="46.1" y="99.9" class="st0" width="4.1" height="4.1"/>
		<g id="XMLID_716_">
			<text id="XMLID_406_" transform="matrix(1 0 0 1 16.1509 85.5005)" class="st3 st4 st5">1</text>
		</g>
		<text id="XMLID_715_" transform="matrix(1 0 0 1 34.5437 85.5)" class="st6 st4 st5">2</text>
	</g>
</g>
<g id="XMLID_679_">
	<g id="XMLID_683_">
		<g id="XMLID_700_">
			<rect id="XMLID_702_" x="20.1" y="182.1" class="st1" width="22.1" height="22.1"/>
			<rect id="XMLID_701_" x="11.9" y="173.8" class="st2" width="22.1" height="22.1"/>
		</g>
	</g>
</g>
<g id="XMLID_10_">
	<g id="XMLID_96_">
		<rect id="XMLID_936_" x="5.9" y="114" class="st0" width="41.9" height="41.9"/>
		<rect id="XMLID_206_" x="3.8" y="112" class="st0" width="4.1" height="4.1"/>
		<rect id="XMLID_103_" x="45.8" y="112" class="st0" width="4.1" height="4.1"/>
		<rect id="XMLID_102_" x="3.8" y="153.9" class="st0" width="4.1" height="4.1"/>
		<rect id="XMLID_101_" x="45.8" y="153.9" class="st0" width="4.1" height="4.1"/>
		<g id="XMLID_100_">
			<rect id="XMLID_399_" x="12.9" y="122" class="st7" width="19.6" height="19.6"/>
			<g id="XMLID_98_">
				<text id="XMLID_407_" transform="matrix(1 0 0 1 20.8474 137.0574)" class="st3 st4 st8">1</text>
			</g>
		</g>
		<g id="XMLID_99_">
			<rect id="XMLID_935_" x="27.5" y="135.9" class="st1" width="15.1" height="15.1"/>
			<g id="XMLID_97_">
				<path id="XMLID_60_" class="st6" d="M35.5,139.5C35.5,139.5,35.6,139.6,35.5,139.5l0.1,3.4h3.2c0.1,0,0.1,0,0.1,0.1v0.8
					c0,0.1,0,0.1-0.1,0.1h-3.2v3.4c0,0,0,0.1-0.1,0.1h-0.8c-0.1,0-0.1,0-0.1-0.1v-3.4h-3.2c-0.1,0-0.1,0-0.1-0.1V143
					c0-0.1,0-0.1,0.1-0.1h3.2v-3.3c0,0,0-0.1,0.1-0.1H35.5z"/>
			</g>
		</g>
	</g>
</g>
</svg>
