<?xml version="1.0" encoding="utf-8"?>
<!-- Generator: Adobe Illustrator 19.0.0, SVG Export Plug-In . SVG Version: 6.00 Build 0)  -->
<svg version="1.1" id="Layer_1" xmlns="http://www.w3.org/2000/svg" xmlns:xlink="http://www.w3.org/1999/xlink" x="0px" y="0px"
	 viewBox="0 0 54 433" style="enable-background:new 0 0 54 433;" xml:space="preserve">
<style type="text/css">
	.st0{fill:#F3F3F3;stroke:#EF4136;stroke-width:0.5;stroke-miterlimit:10;}
	.st1{fill:#75787B;}
	.st2{fill:#F3F3F3;stroke:#606161;stroke-width:0.5;stroke-miterlimit:10;}
	.st3{fill:#606161;}
	.st4{font-family:'AdobeClean-SemiCn';}
	.st5{font-size:13.7944px;}
	.st6{fill:#F3F3F3;}
	.st7{fill:#F3F3F3;stroke:#606161;stroke-width:0.5824;stroke-miterlimit:10;}
	.st8{font-size:16.0689px;}
	.st9{opacity:0.5;}
</style>
<g id="XMLID_727_">
	<g id="XMLID_730_">
		<rect id="XMLID_738_" x="6" y="7.9" class="st0" width="41.9" height="41.9"/>
		<g id="XMLID_735_">
			<rect id="XMLID_737_" x="20.4" y="21.6" class="st1" width="22.1" height="22.1"/>
			<rect id="XMLID_736_" x="12.3" y="13.2" class="st2" width="22.1" height="22.1"/>
		</g>
		<rect id="XMLID_734_" x="4" y="5.8" class="st0" width="4.1" height="4.1"/>
		<rect id="XMLID_733_" x="45.9" y="5.8" class="st0" width="4.1" height="4.1"/>
		<rect id="XMLID_732_" x="4" y="47.8" class="st0" width="4.1" height="4.1"/>
		<rect id="XMLID_731_" x="45.9" y="47.8" class="st0" width="4.1" height="4.1"/>
	</g>
</g>
<g id="XMLID_707_">
	<g id="XMLID_714_">
		<rect id="XMLID_726_" x="6" y="114.1" class="st0" width="41.9" height="41.9"/>
		<g id="XMLID_723_">
			<rect id="XMLID_725_" x="29" y="126.6" class="st1" width="16.8" height="16.8"/>
			<rect id="XMLID_724_" x="9.1" y="126.6" class="st2" width="16.8" height="16.8"/>
		</g>
		<rect id="XMLID_722_" x="4" y="112.1" class="st0" width="4.1" height="4.1"/>
		<rect id="XMLID_721_" x="45.9" y="112.1" class="st0" width="4.1" height="4.1"/>
		<rect id="XMLID_720_" x="4" y="154" class="st0" width="4.1" height="4.1"/>
		<rect id="XMLID_719_" x="45.9" y="154" class="st0" width="4.1" height="4.1"/>
		<g id="XMLID_716_">
			<text id="XMLID_541_" transform="matrix(1 0 0 1 15.9902 139.5606)" class="st3 st4 st5">1</text>
		</g>
		<text id="XMLID_715_" transform="matrix(1 0 0 1 34.383 139.56)" class="st6 st4 st5">2</text>
	</g>
</g>
<g id="XMLID_679_">
	<g id="XMLID_683_">
		<g id="XMLID_700_">
			<rect id="XMLID_702_" x="20.1" y="344.5" class="st1" width="22.1" height="22.1"/>
			<rect id="XMLID_701_" x="11.9" y="336.1" class="st2" width="22.1" height="22.1"/>
		</g>
	</g>
</g>
<g id="XMLID_10_">
	<g id="XMLID_96_">
		<rect id="XMLID_936_" x="6" y="221.8" class="st0" width="41.9" height="41.9"/>
		<rect id="XMLID_206_" x="4" y="219.7" class="st0" width="4.1" height="4.1"/>
		<rect id="XMLID_103_" x="45.9" y="219.7" class="st0" width="4.1" height="4.1"/>
		<rect id="XMLID_102_" x="4" y="261.7" class="st0" width="4.1" height="4.1"/>
		<rect id="XMLID_101_" x="45.9" y="261.7" class="st0" width="4.1" height="4.1"/>
		<g id="XMLID_100_">
			<rect id="XMLID_399_" x="13" y="229.8" class="st7" width="19.6" height="19.6"/>
			<g id="XMLID_98_">
				<text id="XMLID_542_" transform="matrix(1 0 0 1 21.0107 244.8082)" class="st3 st4 st8">1</text>
			</g>
		</g>
		<g id="XMLID_99_">
			<rect id="XMLID_935_" x="27.6" y="243.6" class="st1" width="15.1" height="15.1"/>
			<g id="XMLID_97_">
				<path id="XMLID_60_" class="st6" d="M35.6,247.3C35.7,247.3,35.7,247.3,35.6,247.3l0.1,3.4h3.2c0.1,0,0.1,0,0.1,0.1v0.8
					c0,0.1,0,0.1-0.1,0.1h-3.2v3.4c0,0,0,0.1-0.1,0.1h-0.8c-0.1,0-0.1,0-0.1-0.1v-3.4h-3.2c-0.1,0-0.1,0-0.1-0.1v-0.8
					c0-0.1,0-0.1,0.1-0.1h3.2v-3.3c0,0,0-0.1,0.1-0.1H35.6z"/>
			</g>
		</g>
	</g>
</g>
<g id="XMLID_363_" class="st9">
	<g id="XMLID_365_">
		<rect id="XMLID_400_" x="6" y="61" class="st0" width="41.9" height="41.9"/>
		<g id="XMLID_396_">
			<rect id="XMLID_398_" x="20.4" y="74.7" class="st1" width="22.1" height="22.1"/>
			<rect id="XMLID_397_" x="12.3" y="66.4" class="st2" width="22.1" height="22.1"/>
		</g>
		<rect id="XMLID_395_" x="4" y="58.9" class="st0" width="4.1" height="4.1"/>
		<rect id="XMLID_393_" x="45.9" y="58.9" class="st0" width="4.1" height="4.1"/>
		<rect id="XMLID_391_" x="4" y="100.9" class="st0" width="4.1" height="4.1"/>
		<rect id="XMLID_389_" x="45.9" y="100.9" class="st0" width="4.1" height="4.1"/>
	</g>
</g>
<g id="XMLID_412_" class="st9">
	<g id="XMLID_415_">
		<rect id="XMLID_431_" x="6" y="167.9" class="st0" width="41.9" height="41.9"/>
		<g id="XMLID_426_">
			<rect id="XMLID_429_" x="29" y="180.5" class="st1" width="16.8" height="16.8"/>
			<rect id="XMLID_428_" x="9.1" y="180.5" class="st2" width="16.8" height="16.8"/>
		</g>
		<rect id="XMLID_425_" x="4" y="165.9" class="st0" width="4.1" height="4.1"/>
		<rect id="XMLID_424_" x="45.9" y="165.9" class="st0" width="4.1" height="4.1"/>
		<rect id="XMLID_423_" x="4" y="207.8" class="st0" width="4.1" height="4.1"/>
		<rect id="XMLID_422_" x="45.9" y="207.8" class="st0" width="4.1" height="4.1"/>
		<g id="XMLID_419_">
			<text id="XMLID_543_" transform="matrix(1 0 0 1 15.9902 193.4034)" class="st3 st4 st5">1</text>
		</g>
		<text id="XMLID_418_" transform="matrix(1 0 0 1 34.383 193.4029)" class="st6 st4 st5">2</text>
	</g>
</g>
<g id="XMLID_471_" class="st9">
	<g id="XMLID_472_">
		<rect id="XMLID_487_" x="6" y="276.4" class="st0" width="41.9" height="41.9"/>
		<rect id="XMLID_486_" x="4" y="274.3" class="st0" width="4.1" height="4.1"/>
		<rect id="XMLID_485_" x="45.9" y="274.3" class="st0" width="4.1" height="4.1"/>
		<rect id="XMLID_484_" x="4" y="316.3" class="st0" width="4.1" height="4.1"/>
		<rect id="XMLID_483_" x="45.9" y="316.3" class="st0" width="4.1" height="4.1"/>
		<g id="XMLID_478_">
			<rect id="XMLID_482_" x="13" y="284.3" class="st7" width="19.6" height="19.6"/>
			<g id="XMLID_479_">
				<text id="XMLID_544_" transform="matrix(1 0 0 1 21.0107 299.3958)" class="st3 st4 st8">1</text>
			</g>
		</g>
		<g id="XMLID_473_">
			<rect id="XMLID_477_" x="27.6" y="298.2" class="st1" width="15.1" height="15.1"/>
			<g id="XMLID_474_">
				<path id="XMLID_475_" class="st6" d="M35.6,301.9C35.7,301.9,35.7,301.9,35.6,301.9l0.1,3.4h3.2c0.1,0,0.1,0,0.1,0.1v0.8
					c0,0.1,0,0.1-0.1,0.1h-3.2v3.4c0,0,0,0.1-0.1,0.1h-0.8c-0.1,0-0.1,0-0.1-0.1v-3.4h-3.2c-0.1,0-0.1,0-0.1-0.1v-0.8
					c0-0.1,0-0.1,0.1-0.1h3.2V302c0,0,0-0.1,0.1-0.1H35.6z"/>
			</g>
		</g>
	</g>
</g>
<g id="XMLID_488_" class="st9">
	<g id="XMLID_489_">
		<g id="XMLID_490_">
			<rect id="XMLID_492_" x="20.1" y="398.5" class="st1" width="22.1" height="22.1"/>
			<rect id="XMLID_491_" x="11.9" y="390.1" class="st2" width="22.1" height="22.1"/>
		</g>
	</g>
</g>
</svg>
