<?xml version="1.0" encoding="utf-8"?>
<!-- Generator: Adobe Illustrator 19.0.0, SVG Export Plug-In . SVG Version: 6.00 Build 0)  -->
<svg version="1.1" id="Layer_1" xmlns="http://www.w3.org/2000/svg" xmlns:xlink="http://www.w3.org/1999/xlink" x="0px" y="0px"
	 viewBox="0 0 54 542" style="enable-background:new 0 0 54 542;" xml:space="preserve">
<style type="text/css">
	.st0{fill:#F3F3F3;stroke:#EF4136;stroke-width:0.5;stroke-miterlimit:10;}
	.st1{fill:#75787B;}
	.st2{fill:#F3F3F3;stroke:#606161;stroke-width:0.5;stroke-miterlimit:10;}
	.st3{fill:#606161;}
	.st4{font-family:'AdobeClean-SemiCn';}
	.st5{font-size:13.7944px;}
	.st6{fill:#F3F3F3;}
	.st7{fill:#F3F3F3;stroke:#606161;stroke-width:0.5824;stroke-miterlimit:10;}
	.st8{font-size:16.0689px;}
	.st9{opacity:0.5;}
	.st10{fill:none;stroke:#B3B3B3;stroke-width:0.5;stroke-miterlimit:10;}
	.st11{fill:#77797C;}
	.st12{font-family:'SourceSansPro-Regular';}
	.st13{font-size:12.5616px;}
	.st14{fill:none;stroke:#77797C;stroke-width:0.5;stroke-miterlimit:10;}
	.st15{opacity:0.75;}
</style>
<g id="XMLID_727_">
	<g id="XMLID_730_">
		<rect id="XMLID_738_" x="6" y="9.2" class="st0" width="41.9" height="41.9"/>
		<g id="XMLID_735_">
			<rect id="XMLID_737_" x="20.4" y="22.9" class="st1" width="22.1" height="22.1"/>
			<rect id="XMLID_736_" x="12.3" y="14.6" class="st2" width="22.1" height="22.1"/>
		</g>
		<rect id="XMLID_734_" x="4" y="7.2" class="st0" width="4.1" height="4.1"/>
		<rect id="XMLID_733_" x="45.9" y="7.2" class="st0" width="4.1" height="4.1"/>
		<rect id="XMLID_732_" x="4" y="49.1" class="st0" width="4.1" height="4.1"/>
		<rect id="XMLID_731_" x="45.9" y="49.1" class="st0" width="4.1" height="4.1"/>
	</g>
</g>
<g id="XMLID_707_">
	<g id="XMLID_714_">
		<rect id="XMLID_726_" x="6" y="115.4" class="st0" width="41.9" height="41.9"/>
		<g id="XMLID_723_">
			<rect id="XMLID_725_" x="29" y="128" class="st1" width="16.8" height="16.8"/>
			<rect id="XMLID_724_" x="9.1" y="128" class="st2" width="16.8" height="16.8"/>
		</g>
		<rect id="XMLID_722_" x="4" y="113.4" class="st0" width="4.1" height="4.1"/>
		<rect id="XMLID_721_" x="45.9" y="113.4" class="st0" width="4.1" height="4.1"/>
		<rect id="XMLID_720_" x="4" y="155.3" class="st0" width="4.1" height="4.1"/>
		<rect id="XMLID_719_" x="45.9" y="155.3" class="st0" width="4.1" height="4.1"/>
		<g id="XMLID_716_">
			<text id="XMLID_45_" transform="matrix(1 0 0 1 15.9902 140.9162)" class="st3 st4 st5">1</text>
		</g>
		<text id="XMLID_715_" transform="matrix(1 0 0 1 34.383 140.9156)" class="st6 st4 st5">2</text>
	</g>
</g>
<g id="XMLID_679_">
	<g id="XMLID_683_">
		<g id="XMLID_700_">
			<rect id="XMLID_702_" x="20.1" y="345.8" class="st1" width="22.1" height="22.1"/>
			<rect id="XMLID_701_" x="11.9" y="337.5" class="st2" width="22.1" height="22.1"/>
		</g>
	</g>
</g>
<g id="XMLID_10_">
	<g id="XMLID_96_">
		<rect id="XMLID_936_" x="6" y="223.1" class="st0" width="41.9" height="41.9"/>
		<rect id="XMLID_206_" x="4" y="221.1" class="st0" width="4.1" height="4.1"/>
		<rect id="XMLID_103_" x="45.9" y="221.1" class="st0" width="4.1" height="4.1"/>
		<rect id="XMLID_102_" x="4" y="263" class="st0" width="4.1" height="4.1"/>
		<rect id="XMLID_101_" x="45.9" y="263" class="st0" width="4.1" height="4.1"/>
		<g id="XMLID_100_">
			<rect id="XMLID_399_" x="13" y="231.1" class="st7" width="19.6" height="19.6"/>
			<g id="XMLID_98_">
				<text id="XMLID_44_" transform="matrix(1 0 0 1 21.0107 246.1638)" class="st3 st4 st8">1</text>
			</g>
		</g>
		<g id="XMLID_99_">
			<rect id="XMLID_935_" x="27.6" y="245" class="st1" width="15.1" height="15.1"/>
			<g id="XMLID_97_">
				<path id="XMLID_60_" class="st6" d="M35.6,248.6C35.7,248.6,35.7,248.7,35.6,248.6l0.1,3.4h3.2c0.1,0,0.1,0,0.1,0.1v0.8
					c0,0.1,0,0.1-0.1,0.1h-3.2v3.4c0,0,0,0.1-0.1,0.1h-0.8c-0.1,0-0.1,0-0.1-0.1V253h-3.2c-0.1,0-0.1,0-0.1-0.1v-0.8
					c0-0.1,0-0.1,0.1-0.1h3.2v-3.3c0,0,0-0.1,0.1-0.1H35.6z"/>
			</g>
		</g>
	</g>
</g>
<g id="XMLID_363_" class="st9">
	<g id="XMLID_365_">
		<rect id="XMLID_400_" x="6" y="62.3" class="st0" width="41.9" height="41.9"/>
		<g id="XMLID_396_">
			<rect id="XMLID_398_" x="20.4" y="76.1" class="st1" width="22.1" height="22.1"/>
			<rect id="XMLID_397_" x="12.3" y="67.7" class="st2" width="22.1" height="22.1"/>
		</g>
		<rect id="XMLID_395_" x="4" y="60.3" class="st0" width="4.1" height="4.1"/>
		<rect id="XMLID_393_" x="45.9" y="60.3" class="st0" width="4.1" height="4.1"/>
		<rect id="XMLID_391_" x="4" y="102.2" class="st0" width="4.1" height="4.1"/>
		<rect id="XMLID_389_" x="45.9" y="102.2" class="st0" width="4.1" height="4.1"/>
	</g>
</g>
<g id="XMLID_412_" class="st9">
	<g id="XMLID_415_">
		<rect id="XMLID_431_" x="6" y="169.3" class="st0" width="41.9" height="41.9"/>
		<g id="XMLID_426_">
			<rect id="XMLID_429_" x="29" y="181.8" class="st1" width="16.8" height="16.8"/>
			<rect id="XMLID_428_" x="9.1" y="181.8" class="st2" width="16.8" height="16.8"/>
		</g>
		<rect id="XMLID_425_" x="4" y="167.3" class="st0" width="4.1" height="4.1"/>
		<rect id="XMLID_424_" x="45.9" y="167.3" class="st0" width="4.1" height="4.1"/>
		<rect id="XMLID_423_" x="4" y="209.2" class="st0" width="4.1" height="4.1"/>
		<rect id="XMLID_422_" x="45.9" y="209.2" class="st0" width="4.1" height="4.1"/>
		<g id="XMLID_419_">
			<text id="XMLID_42_" transform="matrix(1 0 0 1 15.9902 194.759)" class="st3 st4 st5">1</text>
		</g>
		<text id="XMLID_418_" transform="matrix(1 0 0 1 34.383 194.7585)" class="st6 st4 st5">2</text>
	</g>
</g>
<g id="XMLID_471_" class="st9">
	<g id="XMLID_472_">
		<rect id="XMLID_487_" x="6" y="277.7" class="st0" width="41.9" height="41.9"/>
		<rect id="XMLID_486_" x="4" y="275.7" class="st0" width="4.1" height="4.1"/>
		<rect id="XMLID_485_" x="45.9" y="275.7" class="st0" width="4.1" height="4.1"/>
		<rect id="XMLID_484_" x="4" y="317.6" class="st0" width="4.1" height="4.1"/>
		<rect id="XMLID_483_" x="45.9" y="317.6" class="st0" width="4.1" height="4.1"/>
		<g id="XMLID_478_">
			<rect id="XMLID_482_" x="13" y="285.7" class="st7" width="19.6" height="19.6"/>
			<g id="XMLID_479_">
				<text id="XMLID_43_" transform="matrix(1 0 0 1 21.0107 300.7514)" class="st3 st4 st8">1</text>
			</g>
		</g>
		<g id="XMLID_473_">
			<rect id="XMLID_477_" x="27.6" y="299.6" class="st1" width="15.1" height="15.1"/>
			<g id="XMLID_474_">
				<path id="XMLID_475_" class="st6" d="M35.6,303.2C35.7,303.2,35.7,303.3,35.6,303.2l0.1,3.4h3.2c0.1,0,0.1,0,0.1,0.1v0.8
					c0,0.1,0,0.1-0.1,0.1h-3.2v3.4c0,0,0,0.1-0.1,0.1h-0.8c-0.1,0-0.1,0-0.1-0.1v-3.4h-3.2c-0.1,0-0.1,0-0.1-0.1v-0.8
					c0-0.1,0-0.1,0.1-0.1h3.2v-3.3c0,0,0-0.1,0.1-0.1H35.6z"/>
			</g>
		</g>
	</g>
</g>
<g id="XMLID_488_" class="st9">
	<g id="XMLID_489_">
		<g id="XMLID_490_">
			<rect id="XMLID_492_" x="20.1" y="399.8" class="st1" width="22.1" height="22.1"/>
			<rect id="XMLID_491_" x="11.9" y="391.5" class="st2" width="22.1" height="22.1"/>
		</g>
	</g>
</g>
<g id="XMLID_480_">
	<rect id="XMLID_499_" x="5.8" y="440" class="st10" width="42.1" height="42.1"/>
	<text id="XMLID_481_" transform="matrix(1 0 0 1 12.1867 473.994)" class="st11 st12 st13">apply</text>
	<g id="XMLID_588_">
		<g id="XMLID_592_">
			<path id="XMLID_593_" class="st14" d="M32.2,454.1H21.4c-0.9,0-1.6-0.6-1.6-1.4c0-0.8,0.7-1.4,1.6-1.4h10.8
				c0.9,0,1.6,0.6,1.6,1.4C33.8,453.5,33.1,454.1,32.2,454.1z"/>
		</g>
		<g id="XMLID_589_">
			<path id="XMLID_591_" class="st14" d="M38.3,446.1h-5.7c-2.3,0-4.2,1.9-4.2,4.2v0.3h3.2v-0.3c0-0.5,0.4-0.9,0.9-0.9h5.7
				c0.5,0,0.9,0.4,0.9,0.9v4.9c0,0.5-0.4,0.9-0.9,0.9h-5.7c-0.5,0-0.9-0.4-0.9-0.9v-0.3h-3.2v0.3c0,2.3,1.9,4.2,4.2,4.2h5.7
				c2.3,0,4.2-1.9,4.2-4.2v-4.9C42.5,448,40.6,446.1,38.3,446.1z"/>
			<path id="XMLID_590_" class="st14" d="M22,455.2c0,0.5-0.4,0.9-0.9,0.9h-5.7c-0.5,0-0.9-0.4-0.9-0.9v-4.9c0-0.5,0.4-0.9,0.9-0.9
				h5.7c0.5,0,0.9,0.4,0.9,0.9v0.3h3.2v-0.3c0-2.3-1.9-4.2-4.2-4.2h-5.7c-2.3,0-4.2,1.9-4.2,4.2v4.9c0,2.3,1.9,4.2,4.2,4.2h5.7
				c2.3,0,4.2-1.9,4.2-4.2v-0.3H22V455.2z"/>
		</g>
	</g>
</g>
<rect id="XMLID_12_" y="433.4" class="st6" width="1.2" height="1.5"/>
<g id="XMLID_30_" class="st15">
	<rect id="XMLID_38_" x="5.8" y="494" class="st10" width="42.1" height="42.1"/>
	<text id="XMLID_37_" transform="matrix(1 0 0 1 12.1867 527.994)" class="st11 st12 st13">apply</text>
	<g id="XMLID_31_">
		<g id="XMLID_35_">
			<path id="XMLID_36_" class="st14" d="M32.2,508.1H21.4c-0.9,0-1.6-0.6-1.6-1.4c0-0.8,0.7-1.4,1.6-1.4h10.8c0.9,0,1.6,0.6,1.6,1.4
				C33.8,507.5,33.1,508.1,32.2,508.1z"/>
		</g>
		<g id="XMLID_32_">
			<path id="XMLID_34_" class="st14" d="M38.3,500.1h-5.7c-2.3,0-4.2,1.9-4.2,4.2v0.3h3.2v-0.3c0-0.5,0.4-0.9,0.9-0.9h5.7
				c0.5,0,0.9,0.4,0.9,0.9v4.9c0,0.5-0.4,0.9-0.9,0.9h-5.7c-0.5,0-0.9-0.4-0.9-0.9v-0.3h-3.2v0.3c0,2.3,1.9,4.2,4.2,4.2h5.7
				c2.3,0,4.2-1.9,4.2-4.2v-4.9C42.5,502,40.6,500.1,38.3,500.1z"/>
			<path id="XMLID_33_" class="st14" d="M22,509.2c0,0.5-0.4,0.9-0.9,0.9h-5.7c-0.5,0-0.9-0.4-0.9-0.9v-4.9c0-0.5,0.4-0.9,0.9-0.9
				h5.7c0.5,0,0.9,0.4,0.9,0.9v0.3h3.2v-0.3c0-2.3-1.9-4.2-4.2-4.2h-5.7c-2.3,0-4.2,1.9-4.2,4.2v4.9c0,2.3,1.9,4.2,4.2,4.2h5.7
				c2.3,0,4.2-1.9,4.2-4.2v-0.3H22V509.2z"/>
		</g>
	</g>
</g>
</svg>
