<?xml version="1.0" encoding="utf-8"?>
<!-- Generator: Adobe Illustrator 18.1.1, SVG Export Plug-In . SVG Version: 6.00 Build 0)  -->
<svg version="1.1" id="Layer_1" xmlns="http://www.w3.org/2000/svg" xmlns:xlink="http://www.w3.org/1999/xlink" x="0px" y="0px"
	 viewBox="0 0 36 522" enable-background="new 0 0 36 522" xml:space="preserve">
<g id="select">
	<g>
		<polygon fill="#76787B" points="19,376.8 26,373.8 8,367.8 14,385.8 17,378.8 23,384.8 25,382.8 		"/>
	</g>
</g>
<g id="poly">
	<path fill="#76787B" d="M18,332.1l9,4.9v9.6l-9,4.9l-9-4.9V337L18,332.1 M18,329.8l-11,6v12l11,6l11-6v-12L18,329.8L18,329.8z"/>
</g>
<g id="pen_tool">
	<polygon fill="none" stroke="#76787B" stroke-width="2" stroke-miterlimit="10" points="8,295.8 12,310.8 20,311.8 22,309.8 
		24,307.8 23,299.8 	"/>
	<line fill="none" stroke="#76787B" stroke-width="2" stroke-miterlimit="10" x1="8" y1="295.8" x2="17.5" y2="305.3"/>
	<circle fill="#76787B" cx="17.5" cy="305.3" r="2.2"/>
	
		<rect x="16.6" y="309.4" transform="matrix(0.7071 -0.7071 0.7071 0.7071 -213.0558 107.3045)" fill="#76787B" width="12.7" height="2.8"/>
</g>
<g id="rotate">
	<path fill="none" stroke="#76787B" stroke-width="2" stroke-miterlimit="10" d="M16.8,258.8c6,0,10.8,4.8,10.8,10.8
		c0,2.6-0.9,5-2.4,6.8"/>
	<g>
		<g>
			<path fill="none" stroke="#76787B" stroke-width="2" stroke-miterlimit="10" d="M8,275.9c-0.3-0.4-0.6-0.8-0.8-1.3"/>
			<path fill="none" stroke="#76787B" stroke-width="2" stroke-miterlimit="10" stroke-dasharray="2.9543,2.9543" d="M6.2,271.9
				c-0.2-0.7-0.2-1.5-0.2-2.2c0-4.9,3.3-9.1,7.9-10.4"/>
			<path fill="none" stroke="#76787B" stroke-width="2" stroke-miterlimit="10" d="M15.3,258.9c0.5-0.1,1-0.1,1.5-0.1"/>
		</g>
	</g>
	<polygon fill="#76787B" points="30.6,277.3 21.6,281.3 22.6,271.3 	"/>
</g>
<g id="generate">
	<polygon fill="#76787B" points="28,234.8 31,246.8 19,243.8 	"/>
	
		<line fill="none" stroke="#76787B" stroke-width="2" stroke-miterlimit="10" stroke-dasharray="3" x1="20" y1="235.8" x2="6" y2="221.8"/>
	<line fill="none" stroke="#76787B" stroke-width="2" stroke-miterlimit="10" x1="29" y1="244.8" x2="20" y2="235.8"/>
</g>
<g id="follow_x5F_path">
	<g>
		<g>
			<polygon fill="#76787B" points="27,203.8 31,201.8 19.5,198.3 23,209.8 25,205.8 29.5,209.8 31,208.3 			"/>
		</g>
	</g>
	<path fill="none" stroke="#76787B" stroke-width="2" stroke-miterlimit="10" d="M21.3,195c5.6-2.5,5.7-10.2,5.7-10.2"/>
	<path fill="none" stroke="#76787B" stroke-width="2" stroke-miterlimit="10" d="M6.5,208.8c0,0,0.9-6.3,4.6-10.1"/>
	<path fill="none" stroke="#76787B" stroke-width="2" stroke-miterlimit="10" d="M16.5,199.8h-2c-2.5,0-4.5-2-4.5-4.5v-2.5
		c0-2.4,2.1-4.5,4.5-4.5h2c2.5,0,4.5,2.2,4.5,4.7v2.3C21,197.8,19,199.8,16.5,199.8z"/>
</g>
<g id="scale">
	<polygon fill="#76787B" points="20,156.8 28,153.8 25,161.8 	"/>
	<g>
		<path fill="#76787B" d="M29,152.8v13H16v-13H29 M31,150.8H14v17h17V150.8L31,150.8z"/>
	</g>
	<g>
		<path fill="#76787B" d="M14,161.8v4v2h2h2l0,3H9v-9H14 M16,159.8H7v13h13l0-7h-4V159.8L16,159.8z"/>
	</g>
	<line fill="none" stroke="#76787B" stroke-width="2" stroke-miterlimit="10" x1="15" y1="166.8" x2="24" y2="157.8"/>
</g>
<g id="undo_1_">
	<polygon fill="#76787B" points="21,113.8 31,119.8 21,125.8 	"/>
	<path fill="none" stroke="#76787B" stroke-width="2" stroke-miterlimit="10" d="M6,136.8v-10c0-4.2,2.9-7,7-7h10"/>
</g>
<g id="redo">
	<polygon fill="#76787B" points="15,77.8 5,83.8 15,89.8 	"/>
	<path fill="none" stroke="#76787B" stroke-width="2" stroke-miterlimit="10" d="M30,100.8v-10c0-4.2-2.9-7-7-7H13"/>
</g>
<g id="rect_x5F_tool">
	<path fill="#76787B" d="M28,45.8v16H8v-16H28 M30,43.8H6v20h24V43.8L30,43.8z"/>
</g>
<g id="ellipse_x5F_tool">
	<path fill="#76787B" d="M18,9.8c6.1,0,11,3.6,11,8s-4.9,8-11,8s-11-3.6-11-8S11.9,9.8,18,9.8 M18,7.8c-7.2,0-13,4.5-13,10
		s5.8,10,13,10s13-4.5,13-10S25.2,7.8,18,7.8L18,7.8z"/>
</g>
<g>
	<path fill="none" stroke="#76787B" stroke-width="1.1929" stroke-miterlimit="10" d="M24.9,495.1h-6.7c-1.2,0-2.2-1-2.2-2.2v-5.6
		c0-1.2,1-2.2,2.2-2.2h6.7c1.2,0,2.2,1,2.2,2.2v5.6C27.1,494.1,26.1,495.1,24.9,495.1z"/>
	<g id="select_1_">
		<g>
			<polygon fill="#76787B" points="28.1,494.3 32.3,492.5 21.5,488.9 25.1,499.7 26.9,495.5 30.5,499.1 31.7,497.9 			"/>
		</g>
	</g>
	<path fill="none" stroke="#76787B" stroke-width="1.1929" stroke-miterlimit="10" d="M15.6,487h-8c-1.8,0-3.3-1.5-3.3-3.3v-8.3
		c0-1.8,1.5-3.3,3.3-3.3h10.1c1.8,0,3.3,1.5,3.3,3.3v8.3c0,0.5-0.1,0.9-0.3,1.3"/>
	<g>
		<path fill="none" d="M15.6,482.5"/>
	</g>
	<g>
		<polygon fill="#76787B" points="6.6,483.6 8.6,480.2 10.6,483.6 		"/>
		<path fill="none" stroke="#76787B" stroke-width="1.1929" stroke-miterlimit="10" stroke-dasharray="1.1929" d="M16.1,492.1h-5.6
			c-1.1,0-2-0.9-2-2v-6.5"/>
	</g>
</g>
<g>
	<path fill="none" stroke="#76787B" stroke-width="1.246" stroke-miterlimit="10" d="M19.5,451.7H8.9c-1.9,0-3.5-1.6-3.5-3.5v-8.7
		c0-1.9,1.6-3.5,3.5-3.5h10.6c1.9,0,3.5,1.6,3.5,3.5v8.7C22.9,450.1,21.4,451.7,19.5,451.7z"/>
	<path fill="none" stroke="#76787B" stroke-width="1.246" stroke-miterlimit="10" d="M28.5,464.1h-7c-1.3,0-2.3-1-2.3-2.3v-5.8
		c0-1.3,1-2.3,2.3-2.3h7c1.3,0,2.3,1,2.3,2.3v5.8C30.8,463,29.8,464.1,28.5,464.1z"/>
	<g id="select_4_">
		<g>
			<polygon fill="#76787B" points="23.5,444.7 27.9,442.9 16.7,439.1 20.4,450.3 22.3,446 26,449.7 27.3,448.5 			"/>
		</g>
	</g>
	<g>
		<polygon fill="#76787B" points="21.1,456.7 24.7,458.8 21.1,460.8 		"/>
		<path fill="none" stroke="#76787B" stroke-width="1.246" stroke-miterlimit="10" stroke-dasharray="1.246" d="M20.8,458.8h-7
			c-1.1,0-2.1-0.9-2.1-2.1v-5.2"/>
	</g>
</g>
<g>
	<rect x="5.8" y="512.2" fill="#76787B" width="6.2" height="5"/>
	<path fill="none" stroke="#76787B" stroke-width="1.301" stroke-miterlimit="10" d="M7.1,512.2v-2c0-1,0.8-1.8,1.8-1.8h0
		c1,0,1.8,0.8,1.8,1.8v2"/>
</g>
<text transform="matrix(1 0 0 1 23.1469 518.1669)" fill="#76787B" font-family="'SourceSansPro-Bold'" font-size="15.444">+</text>
<g id="select_2_">
	<g>
		<polygon fill="none" stroke="#76787B" stroke-width="1.5" stroke-miterlimit="10" points="20,414.3 27,411.3 9,405.3 15,423.3 
			18,416.3 24,422.3 26,420.3 		"/>
	</g>
</g>
</svg>
