<?xml version="1.0" encoding="utf-8"?>
<!-- Generator: Adobe Illustrator 19.0.0, SVG Export Plug-In . SVG Version: 6.00 Build 0)  -->
<svg version="1.1" id="Layer_1" xmlns="http://www.w3.org/2000/svg" xmlns:xlink="http://www.w3.org/1999/xlink" x="0px" y="0px"
	 viewBox="-287 136 36 576" style="enable-background:new -287 136 36 576;" xml:space="preserve">
<style type="text/css">
	.st0{fill:#76787B;}
	.st1{fill:none;stroke:#76787B;stroke-width:2;stroke-miterlimit:10;}
	.st2{fill:none;stroke:#76787B;stroke-width:2;stroke-miterlimit:10;stroke-dasharray:2.9543,2.9543;}
	.st3{fill:none;stroke:#76787B;stroke-width:2;stroke-miterlimit:10;stroke-dasharray:3;}
	.st4{fill:none;stroke:#76787B;stroke-width:1.1929;stroke-miterlimit:10;}
	.st5{fill:none;}
	.st6{fill:none;stroke:#76787B;stroke-width:1.1929;stroke-miterlimit:10;stroke-dasharray:1.1929;}
	.st7{fill:none;stroke:#76787B;stroke-width:1.246;stroke-miterlimit:10;}
	.st8{fill:none;stroke:#76787B;stroke-width:1.246;stroke-miterlimit:10;stroke-dasharray:1.246;}
	.st9{fill:none;stroke:#76787B;stroke-width:1.301;stroke-miterlimit:10;}
	.st10{font-family:'ArialMT';}
	.st11{font-size:15.444px;}
	.st12{fill:none;stroke:#76787B;stroke-width:1.5;stroke-miterlimit:10;}
	.st13{fill:none;stroke:#FFFFFF;stroke-width:0.75;stroke-linecap:round;stroke-miterlimit:10;}
	.st14{fill:#FFFFFF;}
</style>
<g id="select">
	<g>
		<polygon class="st0" points="-268,512.8 -261,509.8 -279,503.8 -273,521.8 -270,514.8 -264,520.8 -262,518.8 		"/>
	</g>
</g>
<g id="poly">
	<path class="st0" d="M-269,468.1l9,4.9v9.6l-9,4.9l-9-4.9V473L-269,468.1 M-269,465.8l-11,6v12l11,6l11-6v-12L-269,465.8
		L-269,465.8z"/>
</g>
<g id="pen_tool">
	<polygon class="st1" points="-279,431.8 -275,446.8 -267,447.8 -265,445.8 -263,443.8 -264,435.8 	"/>
	<line class="st1" x1="-279" y1="431.8" x2="-269.5" y2="441.3"/>
	<circle class="st0" cx="-269.5" cy="441.3" r="2.2"/>
	
		<rect x="-270.4" y="445.4" transform="matrix(-0.7071 0.7071 -0.7071 -0.7071 -134.8111 949.5374)" class="st0" width="12.7" height="2.8"/>
</g>
<g id="rotate">
	<path class="st1" d="M-270.2,394.8c6,0,10.8,4.8,10.8,10.8c0,2.6-0.9,5-2.4,6.8"/>
	<g>
		<g>
			<path class="st1" d="M-279,411.9c-0.3-0.4-0.6-0.8-0.8-1.3"/>
			<path class="st2" d="M-280.8,407.9c-0.2-0.7-0.2-1.5-0.2-2.2c0-4.9,3.3-9.1,7.9-10.4"/>
			<path class="st1" d="M-271.7,394.9c0.5-0.1,1-0.1,1.5-0.1"/>
		</g>
	</g>
	<polygon class="st0" points="-256.4,413.3 -265.4,417.3 -264.4,407.3 	"/>
</g>
<g id="generate">
	<polygon class="st0" points="-259,370.8 -256,382.8 -268,379.8 	"/>
	<line class="st3" x1="-267" y1="371.8" x2="-281" y2="357.8"/>
	<line class="st1" x1="-258" y1="380.8" x2="-267" y2="371.8"/>
</g>
<g id="follow_x5F_path">
	<g>
		<g>
			<polygon class="st0" points="-260,339.8 -256,337.8 -267.5,334.3 -264,345.8 -262,341.8 -257.5,345.8 -256,344.3 			"/>
		</g>
	</g>
	<path class="st1" d="M-265.7,331c5.6-2.5,5.7-10.2,5.7-10.2"/>
	<path class="st1" d="M-280.5,344.8c0,0,0.9-6.3,4.6-10.1"/>
	<path class="st1" d="M-270.5,335.8h-2c-2.5,0-4.5-2-4.5-4.5v-2.5c0-2.4,2.1-4.5,4.5-4.5h2c2.5,0,4.5,2.2,4.5,4.7v2.3
		C-266,333.8-268,335.8-270.5,335.8z"/>
</g>
<g id="scale">
	<polygon class="st0" points="-267,292.8 -259,289.8 -262,297.8 	"/>
	<g>
		<path class="st0" d="M-258,288.8v13h-13v-13H-258 M-256,286.8h-17v17h17V286.8L-256,286.8z"/>
	</g>
	<g>
		<path class="st0" d="M-273,297.8v4v2h2h2v3h-9v-9H-273 M-271,295.8h-9v13h13v-7h-4V295.8L-271,295.8z"/>
	</g>
	<line class="st1" x1="-272" y1="302.8" x2="-263" y2="293.8"/>
</g>
<g id="undo_1_">
	<polygon class="st0" points="-266,249.8 -256,255.8 -266,261.8 	"/>
	<path class="st1" d="M-281,272.8v-10c0-4.2,2.9-7,7-7h10"/>
</g>
<g id="redo">
	<polygon class="st0" points="-272,213.8 -282,219.8 -272,225.8 	"/>
	<path class="st1" d="M-257,236.8v-10c0-4.2-2.9-7-7-7h-10"/>
</g>
<g id="rect_x5F_tool">
	<path class="st0" d="M-259,181.8v16h-20v-16H-259 M-257,179.8h-24v20h24V179.8L-257,179.8z"/>
</g>
<g id="ellipse_x5F_tool">
	<path class="st0" d="M-269,145.8c6.1,0,11,3.6,11,8s-4.9,8-11,8s-11-3.6-11-8S-275.1,145.8-269,145.8 M-269,143.8
		c-7.2,0-13,4.5-13,10s5.8,10,13,10s13-4.5,13-10S-261.8,143.8-269,143.8L-269,143.8z"/>
</g>
<g>
	<path class="st4" d="M-262.1,631.1h-6.7c-1.2,0-2.2-1-2.2-2.2v-5.6c0-1.2,1-2.2,2.2-2.2h6.7c1.2,0,2.2,1,2.2,2.2v5.6
		C-259.9,630.1-260.9,631.1-262.1,631.1z"/>
	<g id="select_1_">
		<g>
			<polygon class="st0" points="-258.9,630.3 -254.7,628.5 -265.5,624.9 -261.9,635.7 -260.1,631.5 -256.5,635.1 -255.3,633.9 			
				"/>
		</g>
	</g>
	<path class="st4" d="M-271.4,623h-8c-1.8,0-3.3-1.5-3.3-3.3v-8.3c0-1.8,1.5-3.3,3.3-3.3h10.1c1.8,0,3.3,1.5,3.3,3.3v8.3
		c0,0.5-0.1,0.9-0.3,1.3"/>
	<g>
		<path class="st5" d="M-271.4,618.5"/>
	</g>
	<g>
		<polygon class="st0" points="-280.4,619.6 -278.4,616.2 -276.4,619.6 		"/>
		<path class="st6" d="M-270.9,628.1h-5.6c-1.1,0-2-0.9-2-2v-6.5"/>
	</g>
</g>
<g>
	<path class="st7" d="M-267.5,587.7h-10.6c-1.9,0-3.5-1.6-3.5-3.5v-8.7c0-1.9,1.6-3.5,3.5-3.5h10.6c1.9,0,3.5,1.6,3.5,3.5v8.7
		C-264.1,586.1-265.6,587.7-267.5,587.7z"/>
	<path class="st7" d="M-258.5,600.1h-7c-1.3,0-2.3-1-2.3-2.3V592c0-1.3,1-2.3,2.3-2.3h7c1.3,0,2.3,1,2.3,2.3v5.8
		C-256.2,599-257.2,600.1-258.5,600.1z"/>
	<g id="select_4_">
		<g>
			<polygon class="st0" points="-263.5,580.7 -259.1,578.9 -270.3,575.1 -266.6,586.3 -264.7,582 -261,585.7 -259.7,584.5 			"/>
		</g>
	</g>
	<g>
		<polygon class="st0" points="-265.9,592.7 -262.3,594.8 -265.9,596.8 		"/>
		<path class="st8" d="M-266.2,594.8h-7c-1.1,0-2.1-0.9-2.1-2.1v-5.2"/>
	</g>
</g>
<g>
	<rect x="-281.2" y="683.2" class="st0" width="6.2" height="5"/>
	<path class="st9" d="M-279.9,683.2v-2c0-1,0.8-1.8,1.8-1.8l0,0c1,0,1.8,0.8,1.8,1.8v2"/>
</g>
<text transform="matrix(1 0 0 1 -264.6996 690.4221)" class="st0 st10 st11">+</text>
<g id="select_2_">
	<g>
		<polygon class="st12" points="-267,550.3 -260,547.3 -278,541.3 -272,559.3 -269,552.3 -263,558.3 -261,556.3 		"/>
	</g>
</g>
<g>
	<polygon class="st0" points="-274,709.2 -282,709.2 -283,701.4 -273,701.4 	"/>
	<rect x="-283.8" y="699.1" class="st0" width="11.6" height="1.6"/>
	<path class="st9" d="M-279.8,699.1c0-1.2,0.8-2.1,1.8-2.1l0,0c1,0,1.8,0.9,1.8,2.1"/>
	<line class="st13" x1="-280.9" y1="703" x2="-280.5" y2="708"/>
	<line class="st13" x1="-278" y1="703" x2="-278" y2="708"/>
	<line class="st13" x1="-275.1" y1="703" x2="-275.5" y2="708"/>
</g>
<g id="XMLID_17_">
	<g id="XMLID_28_">
		<path id="XMLID_29_" class="st0" d="M-266.2,662.6l-7.6-7.6c-0.6-0.6-0.7-1.6-0.2-2.1c0.5-0.5,1.5-0.5,2.1,0.2l7.6,7.6
			c0.6,0.6,0.7,1.6,0.2,2.1C-264.6,663.3-265.6,663.3-266.2,662.6z"/>
	</g>
	<g id="XMLID_20_">
		<path id="XMLID_27_" class="st0" d="M-256.2,661.3l-4.1-4.1c-1.6-1.6-4.3-1.6-5.9,0l-0.2,0.2l2.3,2.3l0.2-0.2
			c0.4-0.4,0.9-0.4,1.3,0l4.1,4.1c0.4,0.4,0.4,0.9,0,1.3l-3.4,3.4c-0.4,0.4-0.9,0.4-1.3,0l-4.1-4.1c-0.4-0.4-0.4-0.9,0-1.3l0.2-0.2
			l-2.3-2.3l-0.2,0.2c-1.6,1.6-1.6,4.3,0,5.9l4.1,4.1c1.6,1.6,4.3,1.6,5.9,0l3.4-3.4C-254.6,665.6-254.6,663-256.2,661.3z"/>
		<path id="XMLID_26_" class="st0" d="M-274.1,656.2c-0.4,0.4-0.9,0.4-1.3,0l-4.1-4.1c-0.4-0.4-0.4-0.9,0-1.3l3.4-3.4
			c0.4-0.4,0.9-0.4,1.3,0l4.1,4.1c0.4,0.4,0.4,0.9,0,1.3l-0.2,0.2l2.3,2.3l0.2-0.2c1.6-1.6,1.6-4.3,0-5.9l-4.1-4.1
			c-1.6-1.6-4.3-1.6-5.9,0l-3.4,3.4c-1.6,1.6-1.6,4.3,0,5.9l4.1,4.1c1.6,1.6,4.3,1.6,5.9,0l0.2-0.2l-2.3-2.3L-274.1,656.2z"/>
	</g>
</g>
<path class="st14" d="M-286.9,639.4"/>
</svg>
