<?xml version="1.0" encoding="utf-8"?>
<!-- Generator: Adobe Illustrator 18.1.1, SVG Export Plug-In . SVG Version: 6.00 Build 0)  -->
<svg version="1.1" id="Layer_1" xmlns="http://www.w3.org/2000/svg" xmlns:xlink="http://www.w3.org/1999/xlink" x="0px" y="0px"
	 viewBox="0 0 20 80" enable-background="new 0 0 20 80" xml:space="preserve">
<g>
	<path fill="none" stroke="#76787B" stroke-miterlimit="10" d="M17.4,11.3c0,0-2.7,2.9-7.4,2.9s-7.4-2.9-7.4-2.9S5.3,5.8,10,5.8
		S17.4,11.3,17.4,11.3z"/>
	<circle fill="none" stroke="#76787B" stroke-miterlimit="10" cx="9.7" cy="9.4" r="3.5"/>
</g>
<g>
	<path fill="none" stroke="#76787B" stroke-width="1.1931" stroke-miterlimit="10" d="M17.4,31.3c0,0-2.7,2.9-7.4,2.9
		s-7.4-2.9-7.4-2.9s2.7-5.5,7.4-5.5S17.4,31.3,17.4,31.3z"/>
	<circle fill="#76787B" cx="9.7" cy="29.4" r="3.5"/>
</g>
<polygon fill="none" stroke="#76787B" stroke-miterlimit="10" points="6.9,55.4 3.8,50 6.9,44.6 13.1,44.6 16.2,50 13.1,55.4 "/>
<polygon fill="#76787B" points="6.9,75.4 3.8,70 6.9,64.6 13.1,64.6 16.2,70 13.1,75.4 "/>
</svg>
