<?xml version="1.0" encoding="utf-8"?>
<!-- Generator: Adobe Illustrator 18.1.1, SVG Export Plug-In . SVG Version: 6.00 Build 0)  -->
<svg version="1.1" id="Layer_1" xmlns="http://www.w3.org/2000/svg" xmlns:xlink="http://www.w3.org/1999/xlink" x="0px" y="0px"
	 viewBox="469 207 25 275" enable-background="new 469 207 25 275" xml:space="preserve">
<g>
	<path fill="none" stroke="#989898" stroke-width="0.5965" stroke-miterlimit="10" d="M491.5,221.1c0,0-3.6,3.9-10,3.9
		s-10-3.9-10-3.9s3.6-7.4,10-7.4S491.5,221.1,491.5,221.1z"/>
	<circle fill="none" stroke="#989898" stroke-width="0.5965" stroke-miterlimit="10" cx="481.1" cy="218.6" r="4.7"/>
</g>
<g>
	<path fill="none" stroke="#76787B" stroke-width="1.1931" stroke-miterlimit="10" d="M491.5,246.1c0,0-3.6,3.9-10,3.9
		s-10-3.9-10-3.9s3.6-7.4,10-7.4S491.5,246.1,491.5,246.1z"/>
	<circle fill="#76787B" cx="481.1" cy="243.6" r="4.7"/>
</g>
<polygon fill="none" stroke="#989898" stroke-width="0.7726" stroke-miterlimit="10" points="477.3,276.7 473.1,269.4 477.3,262.1 
	485.7,262.1 489.9,269.4 485.7,276.7 "/>
<polygon fill="#76787B" points="477.3,301.7 473.1,294.4 477.3,287.1 485.7,287.1 489.9,294.4 485.7,301.7 "/>
<circle fill="#76787B" cx="481.5" cy="344.4" r="4.5"/>
<circle fill="none" stroke="#76787B" stroke-miterlimit="10" cx="481.5" cy="369.4" r="4.5"/>
<g>
	
		<rect x="473.1" y="311.6" fill="#FFFFFF" stroke="#76787B" stroke-width="0.75" stroke-miterlimit="10" width="16.8" height="15.5"/>
	<path fill="#FFFFFF" stroke="#76787B" stroke-width="1.1931" stroke-miterlimit="10" d="M473.1,327.1c0,0,0.6-7.8,8.4-7.7
		c7.8,0.1,7.9-7.7,7.9-7.7"/>
</g>
<polygon fill="#76787B" points="475.5,399.5 481.5,389.2 487.5,399.5 "/>
<polygon fill="#76787B" points="481.5,412.6 476.2,419.4 481.5,426.1 486.8,419.4 "/>
<polygon fill="#76787B" points="476.3,438.4 486.7,444.4 476.3,450.3 "/>
<polygon fill="#76787B" points="487.5,464.3 481.5,474.7 475.5,464.3 "/>
</svg>
