<?xml version="1.0" encoding="utf-8"?>
<!-- Generator: Adobe Illustrator 18.1.1, SVG Export Plug-In . SVG Version: 6.00 Build 0)  -->
<svg version="1.1" id="Layer_1" xmlns="http://www.w3.org/2000/svg" xmlns:xlink="http://www.w3.org/1999/xlink" x="0px" y="0px"
	 viewBox="469 182 25 325" enable-background="new 469 182 25 325" xml:space="preserve">
<g>
	<path fill="none" stroke="#989898" stroke-width="0.5965" stroke-miterlimit="10" d="M491.5,196c0,0-3.6,3.9-10,3.9s-10-3.9-10-3.9
		s3.6-7.4,10-7.4S491.5,196,491.5,196z"/>
	<circle fill="none" stroke="#989898" stroke-width="0.5965" stroke-miterlimit="10" cx="481.1" cy="193.5" r="4.7"/>
</g>
<g>
	<path fill="none" stroke="#76787B" stroke-width="1.1931" stroke-miterlimit="10" d="M491.5,221c0,0-3.6,3.9-10,3.9s-10-3.9-10-3.9
		s3.6-7.4,10-7.4S491.5,221,491.5,221z"/>
	<circle fill="#76787B" cx="481.1" cy="218.5" r="4.7"/>
</g>
<polygon fill="none" stroke="#989898" stroke-width="0.7726" stroke-miterlimit="10" points="477.3,251.6 473.1,244.3 477.3,237 
	485.7,237 489.9,244.3 485.7,251.6 "/>
<polygon fill="#76787B" points="477.3,276.6 473.1,269.3 477.3,262 485.7,262 489.9,269.3 485.7,276.6 "/>
<circle fill="#76787B" cx="481.5" cy="319.3" r="4.5"/>
<circle fill="none" stroke="#76787B" stroke-miterlimit="10" cx="481.5" cy="344.3" r="4.5"/>
<g>
	
		<rect x="473.1" y="286.6" fill="#FFFFFF" stroke="#76787B" stroke-width="0.75" stroke-miterlimit="10" width="16.8" height="15.5"/>
	<path fill="#FFFFFF" stroke="#76787B" stroke-width="1.1931" stroke-miterlimit="10" d="M473.1,302c0,0,0.6-7.8,8.4-7.7
		c7.8,0.1,7.9-7.7,7.9-7.7"/>
</g>
<polygon fill="#76787B" points="475.5,374.4 481.5,364.1 487.5,374.4 "/>
<polygon fill="#76787B" points="481.5,387.5 476.2,394.3 481.5,401.1 486.8,394.3 "/>
<polygon fill="#76787B" points="476.3,413.3 486.7,419.3 476.3,425.2 "/>
<polygon fill="#76787B" points="487.5,439.3 481.5,449.6 475.5,439.3 "/>
<rect x="475.5" y="463.5" fill="#76787B" width="11.9" height="11.9"/>
<rect x="475.5" y="488.5" fill="none" stroke="#76787B" stroke-miterlimit="10" width="11.9" height="11.9"/>
</svg>
