<?xml version="1.0" encoding="utf-8"?>
<!-- Generator: Adobe Illustrator 18.0.0, SVG Export Plug-In . SVG Version: 6.00 Build 0)  -->
<!DOCTYPE svg PUBLIC "-//W3C//DTD SVG 1.1//EN" "http://www.w3.org/Graphics/SVG/1.1/DTD/svg11.dtd">
<svg version="1.1" id="Layer_1" xmlns="http://www.w3.org/2000/svg" xmlns:xlink="http://www.w3.org/1999/xlink" x="0px" y="0px"
	 viewBox="0 0 200 75" enable-background="new 0 0 200 75" xml:space="preserve">
<g>
	<path fill="#231F20" d="M58.6,10.1C56.3,4.2,51.7,1,45.4,1c-5.1,0-10.8,2.8-15.5,7h-0.2l-0.4-5.7H15.5L1,74.2h17L20.6,61l1.3-10
		h0.2c2.1,3.6,6,5.7,10,5.7c7.2,0,14.1-3.9,19.4-10.2c-0.7-2.8-1.1-6-1.1-9.4C50.3,27.2,53.2,17.7,58.6,10.1z M30.8,42.9
		c-2.1,0-4.5-1.3-5.5-4l3.6-18.1c2.6-4.7,6.2-6,8.9-6c3,0,4.9,2.3,4.9,7.9C42.7,34.6,36.9,42.9,30.8,42.9z"/>
	<path fill="#231F20" d="M97.9,2.3l-2.3,5.3h-0.2C93.5,3.6,88.8,1,84.3,1C77.1,1,70.2,4.9,65,11.2c-0.8,1-1.6,2-2.3,3.1
		c-0.9,1.3-1.7,2.7-2.4,4.2C57.6,23.9,56,30.3,56,37.2c0,0.7,0,1.4,0.1,2.1c0.1,1.7,0.3,3.3,0.6,4.8c0.3,1.3,0.6,2.5,1.1,3.6
		c2.3,5.9,6.9,9.1,13.2,9.1c5.1,0,11.3-3,15.9-7.9h0.2v6.6h13.8l10.6-53.2H97.9z M87.9,35.9c-2.8,5.7-6.6,7-9.4,7
		c-3,0-4.9-2.3-4.9-7.9c0-11.9,5.7-20.2,11.9-20.2c1.9,0,4.5,1.3,5.7,4L87.9,35.9z"/>
	<path fill="#231F20" d="M153.6,2c-1.1-0.6-2.8-1-5.7-1c-6,0-12.1,4.9-16.2,11.7h-0.4l0.4-10.4h-13.8l-10.4,53.2h17l5.7-29.8
		c4-7,7.9-9.8,12.3-9.8c0,0,0,0,0,0c1.4-2.8,3.1-5.5,5.1-8C149.5,5.7,151.5,3.7,153.6,2z"/>
	<path fill="#231F20" d="M185.4,2.3l-2.3,5.3h-0.2c-1.9-4-6.6-6.6-11.1-6.6c-4.7,0-9.2,1.6-13.3,4.5c-1.6,1.1-3.1,2.5-4.5,4
		c-2.7,2.8-4.9,6.2-6.7,10.1c-0.4,0.9-0.8,1.8-1.1,2.7c-1.7,4.5-2.7,9.6-2.7,15c0,12.5,5.5,19.6,14.9,19.6c5.1,0,11.3-3,15.9-7.9
		h0.2v6.6h13.8L199,2.3H185.4z M175.4,35.9c-2.8,5.7-6.6,7-9.4,7c-3,0-4.9-2.3-4.9-7.9c0-11.9,5.7-20.2,11.9-20.2
		c1.9,0,4.5,1.3,5.7,4L175.4,35.9z"/>
</g>
</svg>
