<?xml version="1.0" encoding="utf-8"?>
<!-- Generator: Adobe Illustrator 19.0.0, SVG Export Plug-In . SVG Version: 6.00 Build 0)  -->
<svg version="1.1" id="Layer_1" xmlns="http://www.w3.org/2000/svg" xmlns:xlink="http://www.w3.org/1999/xlink" x="0px" y="0px"
	 viewBox="0 0 20 140" style="enable-background:new 0 0 20 140;" xml:space="preserve">
<style type="text/css">
	.st0{fill:none;stroke:#404041;stroke-width:1.2811;stroke-miterlimit:10;}
	.st1{fill:#404041;}
	.st2{fill:none;stroke:#404041;stroke-width:3.8434;stroke-miterlimit:10;}
	.st3{fill:none;stroke:#404041;stroke-width:0.9901;stroke-miterlimit:10;}
</style>
<g id="XMLID_1532_">
	<g id="XMLID_1535_">
		<line id="XMLID_1537_" class="st0" x1="16.9" y1="9.7" x2="2.7" y2="9.7"/>
		<line id="XMLID_1536_" class="st0" x1="9.8" y1="17.1" x2="9.8" y2="2.9"/>
	</g>
</g>
<g id="XMLID_1524_">
	<path id="XMLID_1528_" class="st1" d="M16.7,26.9l-2.2-3.8l-2.2,3.8h1.6c0.1,1.6-0.1,4.4-1.6,5.9c-1.5,1.5-4.1,1.5-5.6,1.4v-1.7
		l-3.8,2.2l3.8,2.2v-1.5c0.4,0,0.8,0.1,1.3,0.1c1.6,0,3.6-0.4,5-1.9c1.9-1.9,2.1-4.8,2-6.7H16.7z"/>
</g>
<g id="XMLID_1513_">
	<g id="XMLID_1520_">
		<line id="XMLID_1523_" class="st0" x1="14.8" y1="55" x2="4.8" y2="45"/>
		<polygon id="XMLID_1522_" class="st1" points="11.4,54.6 15.4,55.7 14.3,51.6 		"/>
		<polygon id="XMLID_1521_" class="st1" points="8.1,45.4 4.1,44.3 5.2,48.4 		"/>
	</g>
</g>
<g id="XMLID_1448_">
	<g id="XMLID_1473_">
		<g id="XMLID_1499_">
			<rect id="XMLID_1502_" x="2.2" y="82.4" class="st1" width="15.2" height="15.2"/>
		</g>
	</g>
</g>
<path id="XMLID_1439_" class="st0" d="M15.6,115.8H4v-11.5h11.5V115.8z"/>
<g id="XMLID_1430_">
	<path id="XMLID_1432_" class="st2" d="M4.9,76c0-6.6,5.3-11.9,11.9-11.9"/>
</g>
<g id="XMLID_1488_">
	<g id="XMLID_1491_">
		<line id="XMLID_1493_" class="st3" x1="15" y1="129.8" x2="4.1" y2="129.8"/>
		<line id="XMLID_1492_" class="st3" x1="9.5" y1="135.5" x2="9.5" y2="124.5"/>
	</g>
	<circle id="XMLID_1489_" class="st3" cx="9.8" cy="130" r="7.1"/>
</g>
</svg>
