<?xml version="1.0" encoding="utf-8"?>
<!-- Generator: Adobe Illustrator 18.1.1, SVG Export Plug-In . SVG Version: 6.00 Build 0)  -->
<svg version="1.1" id="Layer_1" xmlns="http://www.w3.org/2000/svg" xmlns:xlink="http://www.w3.org/1999/xlink" x="0px" y="0px"
	 viewBox="160.1 127.3 20 284" enable-background="new 160.1 127.3 20 284" xml:space="preserve">
<g>
	<g id="XMLID_17_">
		<g id="XMLID_18_">
			<g id="XMLID_19_">
				<rect id="XMLID_20_" x="160.1" y="284.1" fill="#FFFFFF" width="20" height="20"/>
			</g>
		</g>
	</g>
	<g id="XMLID_13_" opacity="0.5">
		<g id="XMLID_14_">
			<g id="XMLID_15_">
				
					<rect id="XMLID_16_" x="161.5" y="285.5" fill="#404041" stroke="#0A0103" stroke-width="0.2995" stroke-miterlimit="10" width="11.5" height="11.5"/>
			</g>
		</g>
	</g>
	<g id="XMLID_9_" opacity="0.5">
		<g id="XMLID_10_">
			<g id="XMLID_11_">
				
					<rect id="XMLID_12_" x="167.2" y="291.2" fill="#404041" stroke="#0A0103" stroke-width="0.2995" stroke-miterlimit="10" width="11.5" height="11.5"/>
			</g>
		</g>
	</g>
</g>
<g id="XMLID_1532_">
	<g id="XMLID_1535_">
		
			<line id="XMLID_1537_" fill="none" stroke="#404041" stroke-width="0.6689" stroke-miterlimit="10" x1="179.4" y1="136.6" x2="160.7" y2="136.6"/>
		
			<line id="XMLID_1536_" fill="none" stroke="#404041" stroke-width="0.6689" stroke-miterlimit="10" x1="170.1" y1="146.3" x2="170.1" y2="127.7"/>
	</g>
</g>
<g id="XMLID_1524_">
	<path id="XMLID_1528_" fill="#404041" d="M179.1,159.2l-2.9-5l-2.9,5h2.1c0.1,2.1-0.1,5.8-2.1,7.8c-2,2-5.4,2-7.4,1.8v-2.2l-5,2.9
		l5,2.9v-2c0.5,0,1.1,0.1,1.7,0.1c2.1,0,4.7-0.5,6.6-2.5c2.5-2.5,2.8-6.3,2.6-8.8C176.9,159.2,179.1,159.2,179.1,159.2z"/>
</g>
<g id="XMLID_1513_">
	<g id="XMLID_1520_">
		
			<line id="XMLID_1523_" fill="none" stroke="#404041" stroke-width="0.6689" stroke-miterlimit="10" x1="176.7" y1="196.2" x2="163.5" y2="183.1"/>
		<polygon id="XMLID_1522_" fill="#404041" points="172.2,195.7 177.5,197.1 176,191.7 		"/>
		<polygon id="XMLID_1521_" fill="#404041" points="167.9,183.6 162.6,182.1 164.1,187.5 		"/>
	</g>
</g>
<g id="XMLID_1448_">
	<g id="XMLID_1473_">
		<g id="XMLID_1499_">
			<rect id="XMLID_1502_" x="160.1" y="232.3" fill="#404041" width="20" height="20"/>
		</g>
	</g>
</g>
<path id="XMLID_1439_" fill="none" stroke="#404041" stroke-width="0.6689" stroke-miterlimit="10" d="M177.7,276.2h-15.3v-15.1
	h15.1v15.1H177.7z"/>
<g id="XMLID_1430_">
	<path id="XMLID_1432_" fill="none" stroke="#404041" stroke-width="2.0068" stroke-miterlimit="10" d="M162.2,223.8
		c0-8.7,7-15.7,15.7-15.7"/>
</g>
<g id="XMLID_1488_">
	<g id="XMLID_1491_">
		
			<line id="XMLID_1493_" fill="none" stroke="#404041" stroke-width="0.517" stroke-miterlimit="10" x1="176.9" y1="319.6" x2="162.6" y2="319.6"/>
		
			<line id="XMLID_1492_" fill="none" stroke="#404041" stroke-width="0.517" stroke-miterlimit="10" x1="169.7" y1="327.1" x2="169.7" y2="312.6"/>
	</g>
	
		<circle id="XMLID_1489_" fill="none" stroke="#404041" stroke-width="0.517" stroke-miterlimit="10" cx="170.1" cy="319.8" r="9.3"/>
</g>
<g id="XMLID_1442_">
	<rect id="XMLID_1444_" x="163.5" y="344.8" fill="#404041" width="13.2" height="10.7"/>
	<path id="XMLID_1443_" fill="none" stroke="#404041" stroke-width="0.9217" stroke-miterlimit="10" d="M166.2,344.8v-4.2
		c0-2.1,1.7-3.8,3.8-3.8l0,0c2.1,0,3.8,1.7,3.8,3.8v4.2"/>
</g>
<g id="XMLID_1319_">
	<g id="XMLID_1339_">
		
			<rect id="XMLID_1346_" x="161.8" y="390.6" fill="none" stroke="#EC1941" stroke-width="0.6182" stroke-miterlimit="10" width="16.4" height="16.4"/>
	</g>
	
		<line id="XMLID_1320_" fill="none" stroke="#EC1941" stroke-width="0.6182" stroke-miterlimit="10" x1="161.8" y1="390.6" x2="178.1" y2="406.9"/>
	
		<line id="XMLID_1178_" fill="none" stroke="#EC1941" stroke-width="0.6182" stroke-miterlimit="10" x1="178.1" y1="390.6" x2="161.8" y2="406.9"/>
</g>
<text id="XMLID_1860_" transform="matrix(1 0 0 1 164.4268 377.0835)" fill="#404041" font-family="'ArialMT'" font-size="15.5904">R</text>
</svg>
