<?xml version="1.0" encoding="utf-8"?>
<!-- Generator: Adobe Illustrator 19.0.0, SVG Export Plug-In . SVG Version: 6.00 Build 0)  -->
<svg version="1.1" id="Layer_1" xmlns="http://www.w3.org/2000/svg" xmlns:xlink="http://www.w3.org/1999/xlink" x="0px" y="0px"
	 viewBox="0 0 188.3 130.5" style="enable-background:new 0 0 188.3 130.5;" xml:space="preserve">
<style type="text/css">
	.st0{fill:#FFFFFF;stroke:#231F20;stroke-miterlimit:10;}
	.st1{fill:#010101;}
	.st2{fill:#FFFFFF;stroke:#ED2224;stroke-miterlimit:10;}
	.st3{fill:#EE203B;stroke:#FFFFFF;stroke-miterlimit:10;}
	.st4{fill:#231F20;stroke:#FFFFFF;stroke-miterlimit:10;}
	.st5{fill:#EE203B;}
	.st6{fill:#FFFFFF;stroke:#000000;stroke-miterlimit:10;}
</style>
<g id="XMLID_973_">
	<rect id="XMLID_5_" x="-11.7" y="-11.7" class="st2" width="16.7" height="16.7"/>
	<g id="XMLID_2_">
		<path id="XMLID_574_" class="st5" d="M-5.9-7.3C-5.4-7.4-4.7-7.5-4-7.5c1,0,1.7,0.2,2.2,0.6c0.4,0.3,0.7,0.8,0.7,1.4
			c0,0.8-0.5,1.5-1.4,1.8v0c0.8,0.2,1.7,0.8,1.7,2c0,0.7-0.3,1.2-0.7,1.6C-2.1,0.5-3,0.8-4.3,0.8c-0.7,0-1.3,0-1.6-0.1V-7.3z
			 M-4.9-4h0.9c1.1,0,1.8-0.6,1.8-1.4c0-0.9-0.7-1.3-1.8-1.3c-0.5,0-0.8,0-0.9,0.1V-4z M-4.9-0.1c0.2,0,0.5,0,0.9,0
			c1.1,0,2.1-0.4,2.1-1.6c0-1.1-0.9-1.6-2.1-1.6h-0.9V-0.1z"/>
	</g>
</g>
</svg>
