<?xml version="1.0" encoding="utf-8"?>
<!-- Generator: Adobe Illustrator 19.0.0, SVG Export Plug-In . SVG Version: 6.00 Build 0)  -->
<svg version="1.1" id="Layer_1" xmlns="http://www.w3.org/2000/svg" xmlns:xlink="http://www.w3.org/1999/xlink" x="0px" y="0px"
	 viewBox="0 0 188.3 130.5" style="enable-background:new 0 0 188.3 130.5;" xml:space="preserve">
<style type="text/css">
	.st0{fill:#FFFFFF;stroke:#231F20;stroke-miterlimit:10;}
	.st1{fill:#010101;}
	.st2{fill:#FFFFFF;stroke:#ED2224;stroke-miterlimit:10;}
	.st3{fill:#EE203B;stroke:#FFFFFF;stroke-miterlimit:10;}
	.st4{fill:#231F20;stroke:#FFFFFF;stroke-miterlimit:10;}
	.st5{fill:#EE203B;}
	.st6{fill:#FFFFFF;stroke:#000000;stroke-miterlimit:10;}
</style>
<g id="XMLID_972_">
	<rect id="XMLID_10_" x="-11.7" y="-11.7" class="st2" width="16.7" height="16.7"/>
	<g id="XMLID_7_">
		<path id="XMLID_582_" class="st5" d="M-5.5-0.6C-5.1-0.3-4.4,0-3.7,0C-2.6,0-2-0.6-2-1.4C-2-2.2-2.4-2.6-3.5-3
			c-1.3-0.5-2.1-1.2-2.1-2.3c0-1.3,1-2.2,2.6-2.2c0.8,0,1.4,0.2,1.8,0.4l-0.3,0.9c-0.3-0.1-0.8-0.4-1.5-0.4c-1.1,0-1.5,0.7-1.5,1.2
			c0,0.8,0.5,1.1,1.6,1.6c1.4,0.5,2.1,1.2,2.1,2.4c0,1.2-0.9,2.3-2.8,2.3c-0.8,0-1.6-0.2-2.1-0.5L-5.5-0.6z"/>
	</g>
</g>

</svg>
